<?xml version="1.0" encoding="UTF-8"?>
<svg width="350px" height="250px" viewBox="0 0 350 250" version="1.1" xmlns="http://www.w3.org/2000/svg" xmlns:xlink="http://www.w3.org/1999/xlink">
    <g stroke="none" stroke-width="1" fill="none" fill-rule="evenodd">
        <path d="M315.857143,5 L34.1428571,5 C18.0171429,5 5,17.864 5,33.8 L5,216.2 C5,232.136 18.0171429,245 34.1428571,245 L315.857143,245 C331.982857,245 345,232.136 345,216.2 L345,33.8 C345,17.864 331.982857,5 315.857143,5 Z" fill="#CC092F"></path>
        <path d="M320,10 C331,10 340,19 340,30 L340,220 C340,231 331,240 320,240 L30,240 C19,240 10,231 10,220 L10,30 C10,19 19,10 30,10 L320,10 Z M320,0 L30,0 C13.4,0 0,13.4 0,30 L0,220 C0,236.6 13.4,250 30,250 L320,250 C336.6,250 350,236.6 350,220 L350,30 C350,13.4 336.6,0 320,0 Z" fill="#E7E7E7"></path>
        <polygon fill="#FFFFFF" points="158 207.546667 169.293333 207.546667 169.293333 149.666667 158 149.666667"></polygon>
        <polygon fill="#FFFFFF" points="178 202.446667 196.5 202.446667 196.5 123 178 123"></polygon>
        <path d="M145.946235,67.7938638 C145.946235,67.7938638 164.592902,49.5605305 196.032902,55.5605305 C196.032902,55.5605305 209.859568,57.7138638 220.466235,67.1338638 C220.466235,67.1338638 222.039568,68.6071971 223.252902,67.3938638 C223.252902,67.3938638 224.792902,66.1871971 223.079568,64.3805305 C223.079568,64.3805305 213.972902,51.7405305 195.966235,46.1538638 C195.966235,46.1538638 171.252902,37.3005305 145.859568,49.2605305 C145.859568,49.2605305 130.226235,55.7405305 121.559568,73.3871971 C121.559568,73.3871971 109.206235,77.3805305 99.9395683,82.5805305 C99.9395683,82.5805305 97.1995683,83.6605305 98.2329016,85.7871971 C98.2329016,85.7871971 99.1195683,87.3138638 101.512902,86.1805305 C101.512902,86.1805305 110.119568,83.2138638 118.419568,81.3605305 C118.419568,81.3605305 111.746235,98.6605305 118.706235,120.127197 C121.806235,129.687197 127.466235,139.413864 136.106235,147.24053 C136.106235,147.24053 137.512902,148.72053 139.046235,147.707197 C139.046235,147.707197 140.379568,146.74053 139.446235,145.153864 C139.446235,145.153864 132.552902,134.78053 129.872902,120.033864 C127.639568,107.993864 128.692902,91.3871971 137.046235,78.2205305 C137.046235,78.2205305 168.859568,73.7805305 195.966235,83.9871971 C195.966235,83.9871971 242.026235,99.0138638 230.426235,126.887197 C230.426235,126.887197 227.052902,136.573864 214.346235,145.32053 C214.346235,145.32053 212.219568,146.567197 213.379568,148.34053 C213.379568,148.34053 214.332902,149.727197 216.506235,148.84053 C216.506235,148.84053 235.979568,142.507197 244.379568,126.867197 C244.379568,126.867197 261.426235,100.787197 221.232902,79.5138638 C221.232902,79.5138638 210.179568,73.6071971 195.966235,70.4471971 C195.966235,70.4471971 170.372902,64.1138638 145.946235,67.7938638" fill="#FFFFFF"></path>
    </g>
</svg>
