<?xml version="1.0" encoding="UTF-8"?>
<svg xmlns="http://www.w3.org/2000/svg" viewBox="0 0 350 250"><path d="M315.9 5.4H34.1C18 5.4 5 18.3 5 34.2v182.4c0 15.9 13 28.8 29.1 28.8h281.7c16.1 0 29.1-12.9 29.1-28.8V34.2c.1-15.9-12.9-28.8-29-28.8z" fill="#64c832"/><path d="M320 10.4c11 0 20 9 20 20v190c0 11-9 20-20 20H30c-11 0-20-9-20-20v-190c0-11 9-20 20-20h290zm0-10H30C13.4.4 0 13.8 0 30.4v190c0 16.6 13.4 30 30 30h290c16.6 0 30-13.4 30-30v-190c0-16.6-13.4-30-30-30z" fill="#e7e7e7"/><g><path d="M215.4 116.7c-4.6 4.1-8.2 4.7-9.8 3.1-1-1.1-1.2-3.2-.5-5.9 2.5-8.6 4.4-17.2 6-26 9.3-4.4 18.7-8.4 29.1-9.5-4.8 14.1-13.7 28.6-24.8 38.3m-4.8 28.7c-5.8-1.3-8.6-3.9-8.5-6.3.1-1.6 1.5-3.1 3.9-4.1 7.4-3.3 14.6-6.9 21.5-11.2 9.1 4.6 17.8 10.5 24.8 17.9-12.8 5.1-28.5 6.7-41.7 3.7m-24.2 15.3c-2.8-6.2-2.6-10.4-.7-11.8 1.3-.9 3.3-.8 5.6.6 7.1 4.2 14.4 8.1 22.1 11.2 2.8 11.5 4.4 23.7 3.7 35.5-12.8-8.3-24.4-21.8-30.7-35.5m-27.5-11.1c3.2-6.8 6.6-9.3 8.9-8.6 1.5.5 2.7 2.3 3.1 5.3 1.3 9.4 3.2 18.6 5.5 27.8-8 11.3-16.5 22.2-27.2 31-1.3-18.2 2-39 9.7-55.5m-8.3-31.1c7.3-1.5 11.2-.3 12.1 2.1.6 1.6-.1 3.7-2.2 5.9-6.8 7.4-13 15.2-19 23.3h-.1c-14.6 1.1-29.8.5-44.1-3.1 14.6-12.8 34.4-24.1 53.3-28.2m18.6-25.1c5.4 4.9 6.9 8.7 5.7 10.9-.8 1.4-2.8 2-5.7 1.7-9.7-1.1-19.4-1.6-29.3-1.7-9.3-11-17.7-23.5-23.1-36.9 18.4 4.3 38.3 13.4 52.4 26m28.8.4c0 6.9-1.8 10.4-4 10.6-1.5.2-3.1-1-4.6-3.5-5-8.2-10.4-16-16.2-23.6 2.2-12.1 5.8-24.4 12-35 7.6 15.4 12.9 34.3 12.8 51.5" fill="#d6e5c7"/><path d="M214.7 53.1c-.5 9.2-1.2 18.4-2.5 27.4-.3 2.4-.7 5.3-1.1 7.5 9.3-4.4 18.7-8.4 29.1-9.5-6.5-10.2-15.2-19-25.5-25.4m37 53.3c-6 4.9-12.1 9.7-18.7 13.9-1.8 1.2-3.9 2.6-5.6 3.6 9.1 4.6 17.8 10.5 24.8 17.9 1.7-12.3 1.6-23.2-.5-35.4m-10 63.6c-7.5-1.9-14.9-4-22-6.8-2-.8-4.4-1.7-6.3-2.5 2.8 11.5 4.4 23.7 3.7 35.5 10-6.7 18.5-15.8 24.6-26.2M188 208.2c-3.5-8.8-6.8-17.6-9.5-26.4-.7-2.5-1.6-5.3-2.2-7.7-8 11.3-16.5 22.2-27.2 31 13 3.9 25.5 5.6 38.9 3.1M119.2 186c5.4-9.8 11.1-19.6 17.3-28.8 1.7-2.4 3.5-5.2 5.1-7.4h-.1c-14.6 1.1-29.8.5-44.1-3.1 3.7 14.8 11.1 28.5 21.8 39.3m-22.6-78.4c11.5-1.4 23-2.7 34.4-3.1 3-.1 6.3-.2 8.9-.3-9.3-11-17.7-23.5-23.1-36.9-10.2 11.4-17.2 25.4-20.2 40.3m88.5-65.4c-6.1 10.7-9.7 23-12 35-1.5-2-3.6-4.4-5.4-6.6-6.7-8.3-14.1-16.2-21.6-23.8 12.4-4.9 25.9-6.5 39-4.6" fill="#fff"/></g></svg>
