<?xml version="1.0" encoding="UTF-8"?>
<svg width="350px" height="250px" viewBox="0 0 350 250" version="1.1" xmlns="http://www.w3.org/2000/svg" xmlns:xlink="http://www.w3.org/1999/xlink">
    <g stroke="none" stroke-width="1" fill="none" fill-rule="evenodd">
        <path d="M315.857143,5 L34.1428571,5 C18.0171429,5 5,17.864 5,33.8 L5,216.2 C5,232.136 18.0171429,245 34.1428571,245 L315.857143,245 C331.982857,245 345,232.136 345,216.2 L345,33.8 C345,17.864 331.982857,5 315.857143,5 Z" fill="#FF6A08"></path>
        <path d="M320,10 C331,10 340,19 340,30 L340,220 C340,231 331,240 320,240 L30,240 C19,240 10,231 10,220 L10,30 C10,19 19,10 30,10 L320,10 Z M320,0 L30,0 C13.4,0 0,13.4 0,30 L0,220 C0,236.6 13.4,250 30,250 L320,250 C336.6,250 350,236.6 350,220 L350,30 C350,13.4 336.6,0 320,0 Z" fill="#E7E7E7"></path>
        <path d="M63.3394462,155.741082 L79.0812657,155.741082 L79.0812657,97.4889248 L63.3394462,97.4889248 L63.3394462,155.741082 Z M93.8874865,99.1299353 L93.6498741,99.1299353 L93.6498741,155.741082 L109.391694,155.741082 L109.391694,111.582308 C112.205915,111.114509 114.32215,111.114509 118.547195,111.114509 C126.299299,111.114509 130.056544,114.403955 130.056544,120.975422 L130.056544,155.978695 L145.798364,155.978695 L145.798364,121.918447 C145.798364,105.708828 135.930025,96.0781014 119.720406,96.0781014 C110.327292,96.0781014 99.7535419,97.2513125 93.8874865,99.1299353 Z M198.414653,127.316703 C198.414653,107.825063 207.339968,96.0781014 225.428209,96.0781014 C243.278839,96.0781014 252.909565,105.939015 252.909565,125.43808 L226.371233,138.358252 L219.554729,125.43808 L236.469759,116.750378 C236.699946,112.993132 231.769489,110.639284 225.665822,110.876897 C218.61913,111.352121 214.624272,114.634142 214.624272,126.618716 C214.624272,138.358252 220.26014,142.35311 228.717656,142.35311 C236.232147,142.35311 243.516451,141.179899 247.273697,140.006688 L247.503883,140.006688 L252.204153,154.092646 L251.973966,154.092646 C245.625261,156.216307 237.175171,157.151906 228.717656,157.151906 C208.743366,157.151906 198.414653,147.05338 198.414653,127.316703 Z M261.36708,99.1299353 L261.129468,99.1299353 L261.129468,155.741082 L276.871287,155.741082 L276.871287,111.582308 C278.74991,111.352121 280.628533,111.114509 284.385778,111.114509 C288.143024,111.114509 290.489446,111.582308 293.080906,112.28772 L293.311093,112.28772 L298.011363,97.7265372 L297.543563,97.7265372 C292.843294,96.5459008 289.086048,96.0781014 282.98238,96.0781014 C277.1089,96.0781014 267.945973,96.7835131 261.36708,99.1299353 Z M172.106508,73.2970155 L172.106508,97.4889248 L191.835761,97.4889248 L191.835761,112.28772 L172.106508,112.28772 L172.106508,134.838619 C172.106508,139.769076 174.452931,141.885311 179.1532,142.35311 C184.558882,143.058522 188.783927,140.7121 191.835761,139.301276 L192.310985,139.063664 L198.414653,152.214024 L198.184466,152.459061 C190.187325,156.446494 185.256868,157.619705 179.1532,157.619705 C164.354405,157.619705 156.364689,149.399802 156.364689,134.601007 L156.364689,81.509493 L172.106508,73.2970155 Z" fill="#FFFFFF"></path>
    </g>
</svg>
