<?xml version="1.0" encoding="UTF-8"?>
<svg width="350" height="251" viewBox="0 0 350 251" xmlns="http://www.w3.org/2000/svg"><g fill="none" fill-rule="evenodd"><path d="M315.9 6H34.1C18 6 5 18.9 5 34.8v182.4C5 233.1 18 246 34.1 246h281.7c16.1 0 29.1-12.9 29.1-28.8V34.8C345 18.9 332 6 315.9 6z" fill="#8A05BE" fill-rule="nonzero"/><path d="M320 11c11 0 20 9 20 20v190c0 11-9 20-20 20H30c-11 0-20-9-20-20V31c0-11 9-20 20-20h290zm0-10H30C13.4 1 0 14.4 0 31v190c0 16.6 13.4 30 30 30h290c16.6 0 30-13.4 30-30V31c0-16.6-13.4-30-30-30z" fill="#E7E7E7" fill-rule="nonzero"/><path d="M265.65 156.39c0 5.884-7.194 13.117-13.045 13.117h-5.331c.004-36 .008-76.355 0-83.517a1.635 1.635 0 011.645-1.627h15.085c.905 0 1.645.74 1.645 1.646v70.381zm-24.581 25.74c0 3.72-1.868 9.96-14.377 9.96-24.237 0-39.12-18.529-39.12-31.813 0 0-.033-42.965-.03-74.28.001-.91.738-1.634 1.646-1.634h15.101c.909 0 1.646.737 1.646 1.646v69.04c0 11.41 9.25 20.661 20.66 20.661h14.475l-.001 6.42zm24.078-103.97h-17.37a6.714 6.714 0 00-6.707 6.706c0 1.567.003 67.437 0 84.641h-14.474c-7.972 0-14.458-6.487-14.458-14.46V84.866a6.713 6.713 0 00-6.706-6.707h-17.386a6.714 6.714 0 00-6.706 6.707c-.005 30.602.027 75.411.027 75.411 0 23.553 26.4 38.016 45.325 38.016 12.694 0 20.58-6.209 20.58-16.204l.002-6.379h5.33c9.355 0 19.25-9.93 19.25-19.32V84.866a6.714 6.714 0 00-6.707-6.707zm-102.69 89.843c0 .908-.736 1.633-1.645 1.633h-15.1a1.65 1.65 0 01-1.646-1.645V98.95c0-11.411-9.25-20.661-20.661-20.661H108.93l.001-6.421c0-3.72 1.868-9.959 14.377-9.959 24.238 0 39.121 18.529 39.121 31.813 0 0 .032 43.178.029 74.28zm-76.46 1.633a1.65 1.65 0 01-1.646-1.645V97.61c0-5.885 7.193-13.118 13.045-13.118h5.331c-.007 51.55-.007 77.923-.002 83.502a1.65 1.65 0 01-1.645 1.642H85.997zm82.636-75.914c0-23.552-26.399-38.015-45.325-38.015-12.694 0-20.58 6.209-20.58 16.203l-.001 6.38h-5.331c-9.355 0-19.249 9.93-19.249 19.32v71.524a6.713 6.713 0 006.706 6.705h17.372c.105 0 .203-.026.308-.031 3.552-.165 6.397-3.083 6.397-6.674 0 0-.003-69.06 0-84.642h14.475c7.971 0 14.457 6.487 14.457 14.46v70.182a6.713 6.713 0 006.706 6.705h17.386a6.714 6.714 0 006.707-6.705c.004-31.18-.028-75.412-.028-75.412z" fill="#F5F5F5"/></g></svg>
