<?xml version="1.0" encoding="UTF-8"?>
<svg width="350px" height="250px" viewBox="0 0 350 250" version="1.1" xmlns="http://www.w3.org/2000/svg" xmlns:xlink="http://www.w3.org/1999/xlink">
    <g stroke="none" stroke-width="1" fill="none" fill-rule="evenodd">
        <path d="M315.857143,5 L34.1428571,5 C18.0171429,5 5,17.864 5,33.8 L5,216.2 C5,232.136 18.0171429,245 34.1428571,245 L315.857143,245 C331.982857,245 345,232.136 345,216.2 L345,33.8 C345,17.864 331.982857,5 315.857143,5 Z" fill="#50AF47"></path>
        <path d="M320,10 C331,10 340,19 340,30 L340,220 C340,231 331,240 320,240 L30,240 C19,240 10,231 10,220 L10,30 C10,19 19,10 30,10 L320,10 Z M320,0 L30,0 C13.4,0 0,13.4 0,30 L0,220 C0,236.6 13.4,250 30,250 L320,250 C336.6,250 350,236.6 350,220 L350,30 C350,13.4 336.6,0 320,0 Z" fill="#E7E7E7"></path>
        <path d="M174.888082,119.775064 L114.876749,85.1621419 L174.888082,50.4468363 L234.899415,85.0597585 L174.888082,119.775064 Z M248.114194,80.4525028 L177.550052,39.6965732 C175.911917,38.7678089 173.864248,38.7678089 172.226112,39.6965732 L101.559586,80.5548863 C100.031148,81.5787209 99,83.3192397 99,85.1621419 C99,87.1074276 100.031148,88.8479464 101.66197,89.7693976 L172.226112,130.430257 C173.04518,130.942174 173.966631,131.146941 174.888082,131.146941 C175.809533,131.146941 176.730984,130.942174 177.550052,130.430257 L248.209265,89.6670141 C249.854713,88.745563 250.878548,87.0050442 250.878548,85.0597585 C250.776164,83.2168562 249.75233,81.4763374 248.114194,80.4525028 Z" fill="#FFFFFF"></path>
        <path d="M245.656991,104.571429 C242.687871,104.571429 240.325738,106.926248 240.325738,109.895368 L240.325738,163.866077 L174.990466,201.557816 L109.64788,163.968461 L109.64788,109.997752 C109.64788,107.028632 107.29306,104.673812 104.331253,104.673812 C101.362133,104.673812 99,107.028632 99,109.997752 L99,167.039965 C99,168.98525 100.023835,170.725769 101.66197,171.64722 L172.226112,212.308079 C173.04518,212.819997 173.966631,213.024764 174.888082,213.024764 C175.809533,213.024764 176.730984,212.819997 177.557365,212.308079 L248.216578,171.55215 C249.854713,170.630699 250.878548,168.882867 250.878548,166.944894 L250.878548,109.895368 C250.878548,106.926248 248.523728,104.571429 245.656991,104.571429" fill="#FFFFFF"></path>
    </g>
</svg>
