<?xml version="1.0" encoding="UTF-8"?>
<svg width="350px" height="250px" viewBox="0 0 350 250" version="1.1" xmlns="http://www.w3.org/2000/svg" xmlns:xlink="http://www.w3.org/1999/xlink">
    <g stroke="none" stroke-width="1" fill="none" fill-rule="evenodd">
        <path d="M315.857143,5 L34.1428571,5 C18.0171429,5 5,17.864 5,33.8 L5,216.2 C5,232.136 18.0171429,245 34.1428571,245 L315.857143,245 C331.982857,245 345,232.136 345,216.2 L345,33.8 C345,17.864 331.982857,5 315.857143,5 Z" fill="#00FF5F"></path>
        <path d="M320,10 C331,10 340,19 340,30 L340,220 C340,231 331,240 320,240 L30,240 C19,240 10,231 10,220 L10,30 C10,19 19,10 30,10 L320,10 Z M320,0 L30,0 C13.4,0 0,13.4 0,30 L0,220 C0,236.6 13.4,250 30,250 L320,250 C336.6,250 350,236.6 350,220 L350,30 C350,13.4 336.6,0 320,0 Z" fill="#E7E7E7"></path>
        <path d="M76.6805188,191.487082 C75.1497389,192.730012 73.3248695,193.425 71.5,193.425 C70.6804612,193.425 69.8609224,193.425 69.0413836,193.00879 C67.0631121,192.334985 65.2527682,190.87128 64.025,188.825 C62.8652188,186.118844 63.264965,183.152767 64.8747294,180.800541 L124.4,61.75 C125.046372,60.2417985 126.177146,59.0565318 127.55031,58.2849546 C130.453873,56.4836927 134.29996,56.5832997 137.05,58.875 L204.073781,115.58743 L273.9,83.6 C276.579179,82.4517803 279.513124,82.8321502 281.853931,84.4019489 C285.533483,86.3184706 287.031585,91.2384763 284.825,95.1 L251.475,164.675 C249.753752,166.969998 246.887501,168.692494 244.018759,168.699976 L244.007085,168.699996 L244,168.7 C242.85,168.7 241.7,168.7 240.55,168.125 C239.556389,167.699167 238.70294,167.063091 238.015602,166.285974 L201.082859,134.845793 L76.6805188,191.487082 Z M89.30625,168.1625 L187.421291,123.215945 L134.363219,78.0485612 L89.30625,168.1625 Z M260.861777,107.628018 L217.824922,127.223011 L241.760855,147.476493 L260.861777,107.628018 Z" fill="#000000"></path>
    </g>
</svg>
